<svg width="20" height="20" viewBox="0 0 20 20" fill="none" xmlns="http://www.w3.org/2000/svg">
<path d="M15.8992 6.59914C15.6771 6.37552 15.3765 6.25 15.0632 6.25C14.75 6.25 14.4494 6.37552 14.2273 6.59914L9.97021 10.8495L5.77246 6.59914C5.6619 6.48798 5.5308 6.39996 5.38664 6.34011C5.24248 6.28025 5.08809 6.24973 4.93228 6.25028C4.77647 6.25084 4.6223 6.28247 4.47856 6.34335C4.33482 6.40424 4.20433 6.4932 4.09455 6.60514C3.98477 6.71709 3.89783 6.84984 3.83872 6.9958C3.7796 7.14177 3.74946 7.29809 3.75001 7.45585C3.75056 7.61361 3.78179 7.76972 3.84193 7.91525C3.90206 8.06079 3.98992 8.19291 4.10048 8.30407L9.12829 13.3948C9.23853 13.5074 9.36968 13.5967 9.51418 13.6577C9.65868 13.7186 9.81367 13.75 9.97021 13.75C10.1268 13.75 10.2817 13.7186 10.4262 13.6577C10.5707 13.5967 10.7019 13.5074 10.8121 13.3948L15.8992 8.30407C16.0104 8.19246 16.0986 8.05966 16.1588 7.91335C16.219 7.76704 16.25 7.61011 16.25 7.45161C16.25 7.29311 16.219 7.13617 16.1588 6.98986C16.0986 6.84355 16.0104 6.71076 15.8992 6.59914Z" fill="#A2A59A"/>
</svg>
